PathFileType	4	(X/Y/Z)	C:/Users/opensim2020/Desktop/walking_exp_matlab/subject06_walking15_straight_01.trc	
DataRate	CameraRate	NumFrames	NumMarkers	Units	OrigDataRate	OrigDataStartFrame	OrigNumFrames	
100.00	100.00	4	47	mm	100.00	921	232	
Frame#	Time	LFHD			RFHD			LBHD			RBHD			C7			T10			CLAV			STRN			RBAK			LSHO			LUPA			LELB			LFRM			LWRA			LWRB			LFIN			RSHO			RUPA			RELB			RFRM			RWRA			RWRB			RFIN			LASI			RASI			LPSI			RPSI			LTHI			LKNE			LTIB			LANK			LHEE			LTOE			RTHI			RKNE			RTIB			RANK			RHEE			RTOE			*39			*40			*41			*42			*43			*44			*45			*46			
		X1	Y1	Z1	X2	Y2	Z2	X3	Y3	Z3	X4	Y4	Z4	X5	Y5	Z5	X6	Y6	Z6	X7	Y7	Z7	X8	Y8	Z8	X9	Y9	Z9	X10	Y10	Z10	X11	Y11	Z11	X12	Y12	Z12	X13	Y13	Z13	X14	Y14	Z14	X15	Y15	Z15	X16	Y16	Z16	X17	Y17	Z17	X18	Y18	Z18	X19	Y19	Z19	X20	Y20	Z20	X21	Y21	Z21	X22	Y22	Z22	X23	Y23	Z23	X24	Y24	Z24	X25	Y25	Z25	X26	Y26	Z26	X27	Y27	Z27	X28	Y28	Z28	X29	Y29	Z29	X30	Y30	Z30	X31	Y31	Z31	X32	Y32	Z32	X33	Y33	Z33	X34	Y34	Z34	X35	Y35	Z35	X36	Y36	Z36	X37	Y37	Z37	X38	Y38	Z38	X39	Y39	Z39	X40	Y40	Z40	X41	Y41	Z41	X42	Y42	Z42	X43	Y43	Z43	X44	Y44	Z44	X45	Y45	Z45	X46	Y46	Z46	X47	Y47	Z47	

146	1.450	1363.88818	237.98235	1646.59875	1495.81836	241.49420	1638.84229	1368.50659	106.60838	1587.69666	1498.39685	111.17185	1585.35132	1423.01013	110.02533	1431.34961	1433.33984	91.32901	1101.22754	1427.25513	223.33698	1357.80237	1417.24951	270.24167	1184.91272	1492.42749	40.08340	1255.58203	1263.62805	167.44025	1388.73865	1190.67334	196.36263	1189.12061	1178.34680	218.72777	1078.34973	1163.44690	321.47052	969.81982	1209.06287	440.63110	928.39453	1180.03674	398.29385	879.78052	1179.57361	482.81161	848.08777	1586.50330	166.02397	1386.45959	1666.24182	95.91466	1195.65747	1679.33545	86.48613	1073.72461	1700.06934	75.19880	954.39777	1680.04114	105.57069	803.15430	1712.59399	49.18268	819.11670	1720.33594	65.71027	736.18170	1318.43774	259.82547	941.42023	1538.93457	279.55627	956.91791	1361.28101	104.59715	969.87634	1529.27197	126.61179	976.37329	1278.26843	142.51598	631.35797	1303.15894	105.58138	470.63647	1312.77087	-50.50199	263.18597	1358.12610	-145.32858	118.93224	1399.31104	-191.64832	126.27493	1378.17639	-27.62251	37.80728	1606.25171	291.96750	629.74841	1575.43945	331.14511	513.75116	1576.13843	354.61093	249.66599	1533.84631	400.02826	69.33801	1485.78113	369.29282	42.93305	1530.34790	557.76202	57.25538	1424.91699	137.79860	1683.41235																					 
147	1.460	1364.36450	247.89021	1647.65576	1496.40613	251.90999	1640.14209	1369.28076	117.04045	1588.08923	1499.19751	121.69534	1586.04077	1423.99792	120.97494	1432.12317	1433.51001	103.93282	1101.27283	1427.96350	234.23766	1358.73535	1417.71948	281.92453	1185.99036	1493.54858	51.79087	1255.10291	1264.15308	177.97810	1389.03369	1191.72119	206.66431	1188.76038	1179.50537	228.29733	1077.83350	1164.46326	329.79456	968.41321	1209.78833	449.04880	925.89197	1180.48047	406.45258	877.93414	1179.98669	490.60681	845.33789	1587.69250	177.51169	1386.71436	1667.36084	108.43368	1195.30249	1680.35974	99.53384	1073.24597	1700.92505	89.02642	953.80707	1680.35461	120.53523	802.86481	1712.97852	64.04206	818.27832	1720.42932	80.88706	735.46484	1318.58936	272.53329	941.60883	1539.31201	293.01859	958.11304	1361.64502	117.66666	970.08551	1529.81934	139.64243	978.18298	1279.30261	155.27892	631.33600	1303.78308	118.75101	470.54803	1313.05408	-41.93267	266.87683	1357.59583	-140.12967	124.91427	1398.70032	-185.90773	134.04541	1378.26062	-26.47668	37.90802	1608.08374	304.28961	631.73804	1577.55884	342.15762	515.85583	1579.16248	365.91122	251.92075	1535.24316	404.93839	69.02335	1488.24072	371.78061	43.96785	1527.37122	561.72479	54.00362	1425.54675	147.66940	1684.04419																					 
148	1.470	1364.90369	257.87579	1648.93970	1496.85864	262.24683	1641.58496	1370.31555	127.15089	1588.87976	1500.19250	132.07835	1586.98828	1425.08716	131.83759	1433.23413	1433.71545	116.30753	1101.73926	1428.60779	245.18065	1360.07410	1418.22791	293.65787	1187.54199	1494.95032	63.16244	1255.41309	1264.68762	188.57774	1389.65076	1192.64355	216.51599	1188.84290	1180.70569	237.76227	1077.65234	1165.76270	337.83817	967.03009	1210.53101	457.07190	923.07208	1181.43738	413.45319	875.52551	1180.72693	497.30841	842.08197	1588.73438	189.16219	1387.24194	1668.50061	121.35816	1195.22302	1681.37280	113.15508	1073.02832	1701.65161	103.56102	953.44147	1680.72852	136.22079	803.01733	1713.40149	79.44386	817.70526	1720.94739	97.38206	735.24292	1319.27942	285.43317	942.45441	1539.93555	306.57089	960.08319	1361.68103	130.67921	970.71582	1529.85266	152.38406	980.27155	1280.51392	168.82030	631.65021	1304.46301	133.03175	470.75647	1313.64502	-32.53122	271.16443	1357.40991	-134.16330	131.55826	1398.68994	-179.04889	142.48009	1378.30334	-25.72831	38.00668	1609.68665	315.88870	634.09363	1579.45007	353.75998	518.24652	1581.01294	375.39322	253.64220	1536.26440	407.34302	69.28524	1489.76074	372.82101	44.52706	1525.61926	563.54523	50.21339	1426.27637	157.59395	1685.06152																					 
149	1.480	1365.47998	267.95300	1650.43115	1497.41064	272.64587	1643.13245	1371.23596	137.32063	1590.07104	1501.05627	142.78967	1588.23608	1426.01367	142.82947	1434.53979	1433.92444	128.41031	1102.70471	1429.24646	256.16446	1361.52588	1418.73438	305.32770	1189.29578	1496.24792	74.70024	1256.38159	1265.26685	199.46266	1390.74451	1193.76172	226.39204	1189.48401	1181.99158	247.44194	1078.11938	1166.82910	346.11948	965.98706	1211.11462	464.47141	919.93878	1181.93152	419.97961	873.16559	1180.94885	503.31775	838.55920	1589.68054	200.83997	1388.19214	1669.56702	134.68625	1195.43884	1682.37756	127.27731	1073.19946	1702.37354	118.64705	953.46204	1680.61108	151.59781	802.96594	1713.91797	95.44570	817.54559	1721.15271	114.04454	735.24487	1320.77856	298.84497	943.97083	1540.31396	319.62045	962.64722	1361.64563	143.66690	971.66650	1529.76074	164.91051	982.45612	1281.76648	183.02026	632.15887	1305.18250	148.65216	471.00540	1314.45898	-22.30783	275.96649	1357.70837	-127.11175	138.80920	1399.24365	-170.78947	151.59973	1378.93359	-24.58110	38.12262	1610.74048	327.48450	636.63440	1579.94678	365.78467	520.65454	1582.61182	382.34164	254.56293	1536.85461	408.63800	69.58121	1490.56494	373.25980	44.83214	1524.93323	564.10870	47.75387	1427.12793	167.80383	1686.33289																					 
